# xmcd CD database file
#
# Track frame offsets:
#	150
#	15924
#	32734
#	51782
#	69350
#	88945
#	106130
#	124069
#	143563
#	157715
#	181270
#
# Disc length: 2747 seconds
#
# Revision: 0
# Processed by: cddbd v1.5.2PL0 Copyright (c) Steve Scherf et al.
# Submitted via: CDex 1.51
#
DISCID=7d0ab90b
DTITLE=Chris Bergson Band - Fall Changes
DYEAR=1900
DGENRE=Blues
TTITLE0=Gowanus Heights
TTITLE1=Float Your Mind
TTITLE2=Fall Changes
TTITLE3=Sanctuary
TTITLE4=Lattitude
TTITLE5=Whan I Paint my Masterpiece
TTITLE6=Rain Beatin' Down
TTITLE7=The Engine
TTITLE8=The Bungler
TTITLE9=Are You Experienced?
TTITLE10=Drown in my Own Tears
EXTD=
EXTT0=
EXTT1=
EXTT2=
EXTT3=
EXTT4=
EXTT5=
EXTT6=
EXTT7=
EXTT8=
EXTT9=
EXTT10=
PLAYORDER=
